<svg xmlns="http://www.w3.org/2000/svg" viewBox="0 0 24 24" fill="none" stroke="currentColor" stroke-width="1.6" stroke-linecap="round" stroke-linejoin="round">
  <path d="M3.5 5.5C3.5 4.4 4.4 3.5 5.5 3.5H11.5C12.6 3.5 13.5 4.4 13.5 5.5V10.5C13.5 13.26 11.26 15.5 8.5 15.5C5.74 15.5 3.5 13.26 3.5 10.5V5.5Z"/>
  <path d="M10.5 8.5C10.5 11.26 12.74 13.5 15.5 13.5C18.26 13.5 20.5 11.26 20.5 8.5V3.5H14.5"/>
  <circle cx="6.5" cy="8" r="0.6" fill="currentColor"/>
  <circle cx="10.5" cy="8" r="0.6" fill="currentColor"/>
  <circle cx="13.5" cy="6" r="0.6" fill="currentColor"/>
  <circle cx="17.5" cy="6" r="0.6" fill="currentColor"/>
  <path d="M6 11.5C7 12.3 9 12.3 10 11.5"/>
  <path d="M13 9.5C14 8.7 16 8.7 17 9.5"/>
  <path d="M8.5 15.5V20.5"/>
  <path d="M5.5 20.5H11.5"/>
</svg>
